Comme-Medium.ufo
<glyph name="colon" format="1">
  <advance width="668"/>
  <unicode hex="003A"/>
  <outline>
    <contour>
      <point x="333" y="-9" type="curve" smooth="yes"/>
      <point x="418" y="-9"/>
      <point x="465" y="49"/>
      <point x="465" y="124" type="curve" smooth="yes"/>
      <point x="465" y="198"/>
      <point x="418" y="259"/>
      <point x="333" y="259" type="curve" smooth="yes"/>
      <point x="247" y="259"/>
      <point x="198" y="198"/>
      <point x="198" y="124" type="curve" smooth="yes"/>
      <point x="198" y="49"/>
      <point x="248" y="-9"/>
    </contour>
    <contour>
      <point x="333" y="824" type="curve" smooth="yes"/>
      <point x="418" y="824"/>
      <point x="465" y="882"/>
      <point x="465" y="957" type="curve" smooth="yes"/>
      <point x="465" y="1031"/>
      <point x="418" y="1092"/>
      <point x="333" y="1092" type="curve" smooth="yes"/>
      <point x="247" y="1092"/>
      <point x="198" y="1031"/>
      <point x="198" y="957" type="curve" smooth="yes"/>
      <point x="198" y="882"/>
      <point x="248" y="824"/>
    </contour>
  </outline>
</glyph>
<glyph name="at" format="1">
  <advance width="1957"/>
  <unicode hex="0040"/>
  <outline>
    <contour>
      <point x="911" y="360" type="curve" smooth="yes"/>
      <point x="798" y="360"/>
      <point x="750" y="448"/>
      <point x="750" y="592" type="curve" smooth="yes"/>
      <point x="750" y="809"/>
      <point x="870" y="981"/>
      <point x="1049" y="981" type="curve" smooth="yes"/>
      <point x="1077" y="981"/>
      <point x="1136" y="973"/>
      <point x="1178" y="964" type="curve"/>
      <point x="1137" y="712" type="line"/>
      <point x="1104" y="502"/>
      <point x="1054" y="360"/>
    </contour>
    <contour>
      <point x="958" y="-181" type="curve" smooth="yes"/>
      <point x="1155" y="-181"/>
      <point x="1357" y="-132"/>
      <point x="1486" y="-40" type="curve"/>
      <point x="1438" y="79" type="line"/>
      <point x="1302" y="-5"/>
      <point x="1129" y="-36"/>
      <point x="961" y="-36" type="curve" smooth="yes"/>
      <point x="552" y="-36"/>
      <point x="324" y="240"/>
      <point x="324" y="628" type="curve" smooth="yes"/>
      <point x="324" y="1034"/>
      <point x="588" y="1363"/>
      <point x="1019" y="1363" type="curve" smooth="yes"/>
      <point x="1442" y="1363"/>
      <point x="1645" y="1099"/>
      <point x="1645" y="778" type="curve" smooth="yes"/>
      <point x="1645" y="506"/>
      <point x="1526" y="368"/>
      <point x="1417" y="368" type="curve" smooth="yes"/>
      <point x="1349" y="368"/>
      <point x="1298" y="424"/>
      <point x="1298" y="505" type="curve" smooth="yes"/>
      <point x="1298" y="631"/>
      <point x="1335" y="821"/>
      <point x="1364" y="1029" type="curve"/>
      <point x="1281" y="1072"/>
      <point x="1144" y="1107"/>
      <point x="1033" y="1107" type="curve" smooth="yes"/>
      <point x="739" y="1107"/>
      <point x="580" y="844"/>
      <point x="580" y="590" type="curve" smooth="yes"/>
      <point x="580" y="387"/>
      <point x="689" y="226"/>
      <point x="894" y="226" type="curve" smooth="yes"/>
      <point x="1032" y="226"/>
      <point x="1128" y="331"/>
      <point x="1177" y="450" type="curve"/>
      <point x="1207" y="315"/>
      <point x="1352" y="291"/>
      <point x="1417" y="232" type="curve"/>
      <point x="1595" y="232"/>
      <point x="1803" y="414"/>
      <point x="1803" y="770" type="curve" smooth="yes"/>
      <point x="1803" y="1219"/>
      <point x="1464" y="1507"/>
      <point x="1026" y="1507" type="curve" smooth="yes"/>
      <point x="519" y="1507"/>
      <point x="148" y="1131"/>
      <point x="148" y="632" type="curve" smooth="yes"/>
      <point x="148" y="124"/>
      <point x="479" y="-181"/>
    </contour>
  </outline>
</glyph>
<glyph name="A" format="1">
  <advance width="1443"/>
  <unicode hex="0041"/>
  <outline>
    <contour>
      <point x="721" y="0" type="move" name="bot"/>
    </contour>
    <contour>
      <point x="720" y="1456" type="move" name="top"/>
    </contour>
    <contour>
      <point x="593" y="1456" type="line"/>
      <point x="61" y="0" type="line"/>
      <point x="291" y="0" type="line"/>
      <point x="448" y="435" type="line"/>
      <point x="992" y="435" type="line"/>
      <point x="1151" y="0" type="line"/>
      <point x="1382" y="0" type="line"/>
      <point x="847" y="1456" type="line"/>
    </contour>
    <contour>
      <point x="498" y="589" type="line"/>
      <point x="721" y="1245" type="line"/>
      <point x="944" y="589" type="line"/>
    </contour>
  </outline>
</glyph>
<glyph name="B" format="1">
  <advance width="1387"/>
  <unicode hex="0042"/>
  <outline>
    <contour>
      <point x="667" y="1456" type="move" name="top"/>
    </contour>
    <contour>
      <point x="568" y="-7" type="curve" smooth="yes"/>
      <point x="1081" y="-7"/>
      <point x="1265" y="127"/>
      <point x="1265" y="433" type="curve" smooth="yes"/>
      <point x="1265" y="619"/>
      <point x="1177" y="738"/>
      <point x="960" y="788" type="curve"/>
      <point x="1142" y="846"/>
      <point x="1216" y="959"/>
      <point x="1216" y="1095" type="curve" smooth="yes"/>
      <point x="1216" y="1298"/>
      <point x="1121" y="1465"/>
      <point x="622" y="1465" type="curve" smooth="yes"/>
      <point x="504" y="1465"/>
      <point x="363" y="1456"/>
      <point x="197" y="1438" type="curve"/>
      <point x="197" y="11" type="line"/>
      <point x="336" y="-1"/>
      <point x="460" y="-7"/>
    </contour>
    <contour>
      <point x="428" y="1298" type="line"/>
      <point x="503" y="1305"/>
      <point x="574" y="1308"/>
      <point x="635" y="1308" type="curve" smooth="yes"/>
      <point x="905" y="1308"/>
      <point x="993" y="1238"/>
      <point x="993" y="1077" type="curve" smooth="yes"/>
      <point x="993" y="896"/>
      <point x="850" y="856"/>
      <point x="676" y="856" type="curve" smooth="yes"/>
      <point x="428" y="856" type="line"/>
    </contour>
    <contour>
      <point x="428" y="704" type="line"/>
      <point x="666" y="704" type="line" smooth="yes"/>
      <point x="921" y="704"/>
      <point x="1036" y="634"/>
      <point x="1036" y="434" type="curve" smooth="yes"/>
      <point x="1036" y="269"/>
      <point x="990" y="158"/>
      <point x="601" y="158" type="curve" smooth="yes"/>
      <point x="548" y="158"/>
      <point x="488" y="160"/>
      <point x="428" y="164" type="curve"/>
    </contour>
  </outline>
</glyph>
<glyph name="K" format="1">
  <advance width="1346"/>
  <unicode hex="004B"/>
  <outline>
    <contour>
      <point x="709" y="0" type="move" name="bot"/>
    </contour>
    <contour>
      <point x="707" y="1456" type="move" name="top"/>
    </contour>
    <contour>
      <point x="1315" y="1456" type="line"/>
      <point x="1062" y="1456" type="line"/>
      <point x="428" y="788" type="line"/>
      <point x="428" y="1456" type="line"/>
      <point x="197" y="1456" type="line"/>
      <point x="197" y="0" type="line"/>
      <point x="428" y="0" type="line"/>
      <point x="428" y="568" type="line"/>
      <point x="564" y="704" type="line"/>
      <point x="1097" y="0" type="line"/>
      <point x="1356" y="0" type="line"/>
      <point x="1356" y="16" type="line"/>
      <point x="735" y="828" type="line"/>
      <point x="1315" y="1439" type="line"/>
    </contour>
  </outline>
</glyph>
<glyph name="Y" format="1">
  <advance width="1361"/>
  <unicode hex="0059"/>
  <outline>
    <contour>
      <point x="682" y="1456" type="move" name="top"/>
    </contour>
    <contour>
      <point x="798" y="526" type="line"/>
      <point x="1300" y="1456" type="line"/>
      <point x="1065" y="1456" type="line"/>
      <point x="681" y="733" type="line"/>
      <point x="288" y="1456" type="line"/>
      <point x="61" y="1456" type="line"/>
      <point x="566" y="528" type="line"/>
      <point x="566" y="0" type="line"/>
      <point x="798" y="0" type="line"/>
    </contour>
  </outline>
</glyph>
<glyph name="backslash" format="1">
  <advance width="937"/>
  <unicode hex="005C"/>
  <outline>
    <contour>
      <point x="621" y="-10" type="line"/>
      <point x="785" y="-10" type="line"/>
      <point x="262" y="1485" type="line"/>
      <point x="96" y="1485" type="line"/>
    </contour>
  </outline>
</glyph>
<glyph name="underscore" format="1">
  <advance width="925"/>
  <unicode hex="005F"/>
  <outline>
    <contour>
      <point x="0" y="-268" type="line"/>
      <point x="925" y="-268" type="line"/>
      <point x="925" y="-125" type="line"/>
      <point x="0" y="-125" type="line"/>
    </contour>
  </outline>
</glyph>
<glyph name="c" format="1">
  <advance width="1088"/>
  <unicode hex="0063"/>
  <outline>
    <contour>
      <point x="607" y="1" type="move" name="bot"/>
    </contour>
    <contour>
      <point x="619" y="1083" type="move" name="top"/>
    </contour>
    <contour>
      <point x="863" y="289" type="line"/>
      <point x="818" y="200"/>
      <point x="748" y="138"/>
      <point x="622" y="138" type="curve" smooth="yes"/>
      <point x="620" y="138" type="line" smooth="yes"/>
      <point x="433" y="138"/>
      <point x="327" y="284"/>
      <point x="327" y="543" type="curve" smooth="yes"/>
      <point x="327" y="802"/>
      <point x="434" y="948"/>
      <point x="622" y="948" type="curve" smooth="yes"/>
      <point x="748" y="947"/>
      <point x="819" y="883"/>
      <point x="864" y="794" type="curve"/>
      <point x="877" y="794" type="line"/>
      <point x="1011" y="869" type="line"/>
      <point x="957" y="993"/>
      <point x="845" y="1105"/>
      <point x="613" y="1105" type="curve" smooth="yes"/>
      <point x="303" y="1105"/>
      <point x="106" y="888"/>
      <point x="106" y="543" type="curve" smooth="yes"/>
      <point x="106" y="197"/>
      <point x="303" y="-20"/>
      <point x="613" y="-20" type="curve" smooth="yes"/>
      <point x="845" y="-20"/>
      <point x="958" y="92"/>
      <point x="1011" y="217" type="curve"/>
      <point x="876" y="289" type="line"/>
    </contour>
  </outline>
</glyph>
<glyph name="j" format="1">
  <advance width="608"/>
  <unicode hex="006A"/>
  <outline>
    <contour>
      <point x="478" y="1436" type="curve" smooth="yes"/>
      <point x="478" y="1520"/>
      <point x="424" y="1573"/>
      <point x="332" y="1573" type="curve" smooth="yes"/>
      <point x="239" y="1573"/>
      <point x="185" y="1520"/>
      <point x="185" y="1436" type="curve" smooth="yes"/>
      <point x="185" y="1349"/>
      <point x="239" y="1295"/>
      <point x="332" y="1295" type="curve" smooth="yes"/>
      <point x="424" y="1295"/>
      <point x="478" y="1349"/>
    </contour>
    <contour>
      <point x="229" y="1082" type="line"/>
      <point x="229" y="16" type="line" smooth="yes"/>
      <point x="229" y="-163"/>
      <point x="221" y="-201"/>
      <point x="67" y="-244" type="curve" smooth="yes"/>
      <point x="-4" y="-264" type="line"/>
      <point x="44" y="-430" type="line"/>
      <point x="112" y="-414" type="line"/>
      <point x="344" y="-362"/>
      <point x="446" y="-288"/>
      <point x="446" y="-16" type="curve" smooth="yes"/>
      <point x="446" y="1082" type="line"/>
    </contour>
  </outline>
</glyph>
<glyph name="n" format="1">
  <advance width="1217"/>
  <unicode hex="006E"/>
  <outline>
    <contour>
      <point x="616" y="0" type="move" name="bot"/>
    </contour>
    <contour>
      <point x="698" y="1082" type="move" name="top"/>
    </contour>
    <contour>
      <point x="158" y="0" type="line"/>
      <point x="376" y="0" type="line"/>
      <point x="376" y="614" type="line" smooth="yes"/>
      <point x="376" y="806"/>
      <point x="464" y="951"/>
      <point x="661" y="951" type="curve" smooth="yes"/>
      <point x="809" y="951"/>
      <point x="857" y="842"/>
      <point x="857" y="658" type="curve" smooth="yes"/>
      <point x="857" y="0" type="line"/>
      <point x="1074" y="0" type="line"/>
      <point x="1074" y="656" type="line" smooth="yes"/>
      <point x="1074" y="943"/>
      <point x="960" y="1105"/>
      <point x="717" y="1105" type="curve" smooth="yes"/>
      <point x="535" y="1105"/>
      <point x="422" y="1017"/>
      <point x="361" y="878" type="curve"/>
      <point x="341" y="1082" type="line"/>
      <point x="158" y="1082" type="line"/>
    </contour>
  </outline>
</glyph>
<glyph name="sterling" format="1">
  <advance width="1159"/>
  <unicode hex="00A3"/>
  <outline>
    <contour>
      <point x="478" y="974" type="line" smooth="yes"/>
      <point x="478" y="1206"/>
      <point x="561" y="1316"/>
      <point x="718" y="1316" type="curve" smooth="yes"/>
      <point x="817" y="1316"/>
      <point x="880" y="1274"/>
      <point x="950" y="1222" type="curve"/>
      <point x="968" y="1222" type="line"/>
      <point x="1045" y="1362" type="line"/>
      <point x="986" y="1418"/>
      <point x="871" y="1497"/>
      <point x="683" y="1497" type="curve" smooth="yes"/>
      <point x="348" y="1497"/>
      <point x="251" y="1248"/>
      <point x="251" y="961" type="curve" smooth="yes"/>
      <point x="251" y="824" type="line"/>
      <point x="75" y="824" type="line"/>
      <point x="75" y="678" type="line"/>
      <point x="251" y="678" type="line"/>
      <point x="251" y="164" type="line"/>
      <point x="78" y="146" type="line"/>
      <point x="89" y="0" type="line"/>
      <point x="1038" y="0" type="line"/>
      <point x="1048" y="166" type="line"/>
      <point x="478" y="166" type="line"/>
      <point x="478" y="678" type="line"/>
      <point x="840" y="678" type="line"/>
      <point x="840" y="824" type="line"/>
      <point x="478" y="824" type="line"/>
    </contour>
  </outline>
</glyph>
<glyph name="dieresis" format="1">
  <advance width="969"/>
  <unicode hex="00A8"/>
  <outline>
    <contour>
      <point x="481" y="1082" type="move" name="_top"/>
    </contour>
    <contour>
      <point x="699" y="1277" type="curve" smooth="yes"/>
      <point x="777" y="1277"/>
      <point x="815" y="1327"/>
      <point x="815" y="1395" type="curve" smooth="yes"/>
      <point x="815" y="1464"/>
      <point x="777" y="1515"/>
      <point x="699" y="1515" type="curve" smooth="yes"/>
      <point x="620" y="1515"/>
      <point x="581" y="1464"/>
      <point x="581" y="1395" type="curve" smooth="yes"/>
      <point x="581" y="1328"/>
      <point x="620" y="1277"/>
    </contour>
    <contour>
      <point x="248" y="1277" type="curve" smooth="yes"/>
      <point x="326" y="1277"/>
      <point x="364" y="1328"/>
      <point x="364" y="1395" type="curve" smooth="yes"/>
      <point x="364" y="1464"/>
      <point x="326" y="1515"/>
      <point x="248" y="1515" type="curve" smooth="yes"/>
      <point x="168" y="1515"/>
      <point x="130" y="1464"/>
      <point x="130" y="1395" type="curve" smooth="yes"/>
      <point x="130" y="1328"/>
      <point x="169" y="1277"/>
    </contour>
  </outline>
</glyph>
<glyph name="macron" format="1">
  <advance width="1123"/>
  <unicode hex="00AF"/>
  <outline>
    <contour>
      <point x="561" y="1069" type="move" name="_top"/>
    </contour>
    <contour>
      <point x="244" y="1314" type="line"/>
      <point x="854" y="1314" type="line"/>
      <point x="854" y="1426" type="line"/>
      <point x="244" y="1426" type="line"/>
    </contour>
  </outline>
</glyph>
<glyph name="paragraph" format="1">
  <advance width="1166"/>
  <unicode hex="00B6"/>
  <outline>
    <contour>
      <point x="656" y="1326" type="line"/>
      <point x="807" y="1326" type="line"/>
      <point x="807" y="-215" type="line"/>
      <point x="946" y="-215" type="line"/>
      <point x="946" y="1456" type="line"/>
      <point x="578" y="1456" type="line" smooth="yes"/>
      <point x="232" y="1456"/>
      <point x="125" y="1291"/>
      <point x="125" y="1100" type="curve" smooth="yes"/>
      <point x="125" y="919"/>
      <point x="235" y="747"/>
      <point x="517" y="747" type="curve"/>
      <point x="517" y="-215" type="line"/>
      <point x="656" y="-215" type="line"/>
    </contour>
  </outline>
</glyph>
<glyph name="AE" format="1">
  <advance width="1694"/>
  <unicode hex="00C6"/>
  <outline>
    <contour>
      <point x="817" y="592" type="line"/>
      <point x="476" y="592" type="line"/>
      <point x="817" y="1242" type="line"/>
    </contour>
    <contour>
      <point x="728" y="1456" type="line"/>
      <point x="-73" y="0" type="line"/>
      <point x="166" y="0" type="line"/>
      <point x="402" y="441" type="line"/>
      <point x="817" y="441" type="line"/>
      <point x="817" y="0" type="line"/>
      <point x="1626" y="0" type="line"/>
      <point x="1637" y="168" type="line"/>
      <point x="1020" y="168" type="line"/>
      <point x="1020" y="674" type="line"/>
      <point x="1560" y="674" type="line"/>
      <point x="1560" y="839" type="line"/>
      <point x="1020" y="839" type="line"/>
      <point x="1020" y="1292" type="line"/>
      <point x="1610" y="1292" type="line"/>
      <point x="1620" y="1456" type="line"/>
    </contour>
  </outline>
</glyph>
<glyph name="divide" format="1">
  <advance width="1194"/>
  <unicode hex="00F7"/>
  <outline>
    <contour>
      <point x="484" y="1114" type="line"/>
      <point x="484" y="890" type="line"/>
      <point x="706" y="890" type="line"/>
      <point x="706" y="1114" type="line"/>
    </contour>
    <contour>
      <point x="484" y="259" type="line"/>
      <point x="484" y="28" type="line"/>
      <point x="702" y="28" type="line"/>
      <point x="702" y="259" type="line"/>
    </contour>
    <contour>
      <point x="99" y="661" type="line"/>
      <point x="99" y="502" type="line"/>
      <point x="1086" y="502" type="line"/>
      <point x="1086" y="661" type="line"/>
    </contour>
  </outline>
</glyph>
<glyph name="eng" format="1">
  <advance width="1206"/>
  <unicode hex="014B"/>
  <outline>
    <component base="n"/>
    <contour>
      <point x="857" y="137" type="line"/>
      <point x="857" y="-12" type="line"/>
      <point x="856" y="-231"/>
      <point x="821" y="-290"/>
      <point x="480" y="-290" type="curve"/>
      <point x="487" y="-448" type="line"/>
      <point x="934" y="-444"/>
      <point x="1074" y="-347"/>
      <point x="1074" y="-23" type="curve" smooth="yes"/>
      <point x="1074" y="137" type="line"/>
    </contour>
  </outline>
</glyph>
<glyph name="OE" format="1">
  <advance width="2330"/>
  <unicode hex="0152"/>
  <outline>
    <contour>
      <point x="1220" y="722" type="curve" smooth="yes"/>
      <point x="1220" y="382"/>
      <point x="1103" y="156"/>
      <point x="783" y="156" type="curve" smooth="yes"/>
      <point x="463" y="156"/>
      <point x="344" y="382"/>
      <point x="344" y="722" type="curve" smooth="yes"/>
      <point x="344" y="1075"/>
      <point x="472" y="1304"/>
      <point x="784" y="1304" type="curve" smooth="yes"/>
      <point x="1098" y="1304"/>
      <point x="1220" y="1074"/>
    </contour>
    <contour>
      <point x="127" y="723" type="curve" smooth="yes"/>
      <point x="127" y="263"/>
      <point x="343" y="-19"/>
      <point x="784" y="-19" type="curve" smooth="yes"/>
      <point x="980" y="-19"/>
      <point x="1127" y="43"/>
      <point x="1221" y="156" type="curve"/>
      <point x="1221" y="0" type="line"/>
      <point x="2185" y="0" type="line"/>
      <point x="2195" y="168" type="line"/>
      <point x="1430" y="168" type="line"/>
      <point x="1430" y="669" type="line"/>
      <point x="2119" y="669" type="line"/>
      <point x="2119" y="834" type="line"/>
      <point x="1430" y="834" type="line"/>
      <point x="1430" y="1292" type="line"/>
      <point x="2169" y="1292" type="line"/>
      <point x="2179" y="1456" type="line"/>
      <point x="1221" y="1456" type="line"/>
      <point x="1221" y="1297" type="line"/>
      <point x="1127" y="1414"/>
      <point x="978" y="1478"/>
      <point x="785" y="1478" type="curve" smooth="yes"/>
      <point x="351" y="1478"/>
      <point x="127" y="1193"/>
    </contour>
  </outline>
</glyph>
<glyph name="uni0259" format="1">
  <advance width="1148"/>
  <unicode hex="0259"/>
  <outline>
    <contour>
      <point x="840" y="459" type="line"/>
      <point x="823" y="253"/>
      <point x="710" y="133"/>
      <point x="548" y="133" type="curve" smooth="yes"/>
      <point x="387" y="133"/>
      <point x="311" y="248"/>
      <point x="309" y="459" type="curve"/>
    </contour>
    <contour>
      <point x="134" y="591" type="line"/>
      <point x="134" y="591"/>
      <point x="124" y="518"/>
      <point x="124" y="478" type="curve" smooth="yes"/>
      <point x="124" y="174"/>
      <point x="276" y="-20"/>
      <point x="558" y="-20" type="curve" smooth="yes"/>
      <point x="843" y="-20"/>
      <point x="1064" y="189"/>
      <point x="1064" y="546" type="curve" smooth="yes"/>
      <point x="1064" y="893"/>
      <point x="838" y="1105"/>
      <point x="533" y="1105" type="curve" smooth="yes"/>
      <point x="374" y="1105"/>
      <point x="239" y="1058"/>
      <point x="151" y="993" type="curve"/>
      <point x="200" y="861" type="line"/>
      <point x="213" y="861" type="line"/>
      <point x="302" y="912"/>
      <point x="385" y="951"/>
      <point x="506" y="951" type="curve" smooth="yes"/>
      <point x="690" y="951"/>
      <point x="827" y="841"/>
      <point x="843" y="591" type="curve"/>
    </contour>
  </outline>
</glyph>
<glyph name="ogonek" format="1">
  <advance width="766"/>
  <unicode hex="02DB"/>
  <outline>
    <contour>
      <point x="444" y="-428" type="curve" smooth="yes"/>
      <point x="498" y="-428"/>
      <point x="561" y="-413"/>
      <point x="602" y="-395" type="curve"/>
      <point x="598" y="-276" type="line"/>
      <point x="581" y="-284"/>
      <point x="529" y="-303"/>
      <point x="483" y="-303" type="curve" smooth="yes"/>
      <point x="439" y="-303"/>
      <point x="403" y="-275"/>
      <point x="403" y="-224" type="curve" smooth="yes"/>
      <point x="403" y="-151"/>
      <point x="475" y="-45"/>
      <point x="540" y="4" type="curve"/>
      <point x="449" y="4" type="line"/>
      <point x="353" y="-39"/>
      <point x="249" y="-147"/>
      <point x="249" y="-267" type="curve" smooth="yes"/>
      <point x="249" y="-369"/>
      <point x="323" y="-428"/>
    </contour>
  </outline>
</glyph>
<glyph name="tilde" format="1">
  <advance width="986"/>
  <unicode hex="02DC"/>
  <outline>
    <contour>
      <point x="493" y="1069" type="move" name="_top"/>
    </contour>
    <contour>
      <point x="168" y="1286" type="curve"/>
      <point x="270" y="1286" type="line"/>
      <point x="281" y="1357"/>
      <point x="305" y="1386"/>
      <point x="341" y="1386" type="curve" smooth="yes"/>
      <point x="412" y="1386"/>
      <point x="526" y="1286"/>
      <point x="634" y="1286" type="curve" smooth="yes"/>
      <point x="739" y="1286"/>
      <point x="795" y="1378"/>
      <point x="795" y="1510" type="curve"/>
      <point x="690" y="1510" type="line"/>
      <point x="679" y="1446"/>
      <point x="659" y="1425"/>
      <point x="628" y="1425" type="curve" smooth="yes"/>
      <point x="567" y="1425"/>
      <point x="469" y="1511"/>
      <point x="343" y="1511" type="curve" smooth="yes"/>
      <point x="226" y="1511"/>
      <point x="168" y="1421"/>
    </contour>
  </outline>
</glyph>
<glyph name="quotesinglbase" format="1">
  <advance width="472"/>
  <unicode hex="201A"/>
  <outline>
    <contour>
      <point x="100" y="-327" type="line"/>
      <point x="239" y="-327" type="line"/>
      <point x="354" y="157" type="line"/>
      <point x="151" y="157" type="line"/>
    </contour>
  </outline>
</glyph>
<glyph name="partialdiff" format="1">
  <advance width="1223"/>
  <unicode hex="2202"/>
  <outline>
    <contour>
      <point x="502" y="98" type="curve" smooth="yes"/>
      <point x="428" y="98"/>
      <point x="391" y="169"/>
      <point x="391" y="266" type="curve" smooth="yes"/>
      <point x="391" y="475"/>
      <point x="559" y="808"/>
      <point x="875" y="828" type="curve"/>
      <point x="855" y="542"/>
      <point x="744" y="98"/>
    </contour>
    <contour>
      <point x="488" y="-20" type="curve" smooth="yes"/>
      <point x="840" y="-20"/>
      <point x="1075" y="385"/>
      <point x="1075" y="913" type="curve" smooth="yes"/>
      <point x="1075" y="1316"/>
      <point x="839" y="1560"/>
      <point x="548" y="1560" type="curve" smooth="yes"/>
      <point x="451" y="1560"/>
      <point x="348" y="1533"/>
      <point x="245" y="1475" type="curve"/>
      <point x="288" y="1366" type="line"/>
      <point x="363" y="1403"/>
      <point x="436" y="1421"/>
      <point x="505" y="1421" type="curve" smooth="yes"/>
      <point x="718" y="1421"/>
      <point x="882" y="1251"/>
      <point x="882" y="969" type="curve" smooth="yes"/>
      <point x="882" y="957"/>
      <point x="882" y="944"/>
      <point x="881" y="931" type="curve"/>
      <point x="425" y="924"/>
      <point x="171" y="568"/>
      <point x="171" y="294" type="curve" smooth="yes"/>
      <point x="171" y="121"/>
      <point x="273" y="-20"/>
    </contour>
  </outline>
</glyph>
<glyph name="caron.alt" format="1">
  <advance width="710"/>
  <outline>
    <contour>
      <point x="177" y="1082" type="move" name="_caron.alt"/>
    </contour>
    <contour>
      <point x="438" y="1151" type="line"/>
      <point x="584" y="1151" type="line"/>
      <point x="661" y="1546" type="line"/>
      <point x="467" y="1546" type="line"/>
    </contour>
  </outline>
</glyph>
